<svg width="30" height="30" viewBox="0 0 30 30" fill="none" xmlns="http://www.w3.org/2000/svg">
<path d="M11.4846 1.17188C11.8082 1.17188 12.0705 0.909576 12.0705 0.585938C12.0705 0.262299 11.8082 0 11.4846 0H11.4841C11.1607 0 10.8984 0.262299 10.8984 0.585938C10.8984 0.909576 11.161 1.17188 11.4846 1.17188Z" fill="black"/>
<path d="M22.3828 0H13.8281C13.5045 0 13.2422 0.262299 13.2422 0.585938C13.2422 0.909576 13.5045 1.17188 13.8281 1.17188H22.3828C25.9367 1.17188 28.8281 4.06311 28.8281 7.61719V22.3828C28.8281 25.9369 25.9367 28.8281 22.3828 28.8281H7.61719C4.06334 28.8281 1.17188 25.9369 1.17188 22.3828V7.61719C1.17188 4.06311 4.06334 1.17188 7.61719 1.17188H9.14062C9.46426 1.17188 9.72656 0.909576 9.72656 0.585938C9.72656 0.262299 9.46426 0 9.14062 0H7.61719C3.41698 0 0 3.41698 0 7.61719V22.3828C0 26.583 3.41698 30 7.61719 30H22.3828C26.583 30 30 26.583 30 22.3828V7.61719C30 3.41698 26.583 0 22.3828 0Z" fill="#C02020"/>
<path d="M20.8594 27.6562H22.3828C25.2905 27.6562 27.6562 25.2905 27.6562 22.3828V7.61719C27.6562 4.70947 25.2905 2.34375 22.3828 2.34375H7.61719C4.70947 2.34375 2.34375 4.70947 2.34375 7.61719V22.3828C2.34375 25.2905 4.70947 27.6562 7.61719 27.6562H16.1719C16.4955 27.6562 16.7578 27.394 16.7578 27.0703C16.7578 26.7467 16.4955 26.4844 16.1719 26.4844H7.61719C5.35561 26.4844 3.51562 24.6444 3.51562 22.3828V7.61719C3.51562 5.35561 5.35561 3.51562 7.61719 3.51562H22.3828C24.6444 3.51562 26.4844 5.35561 26.4844 7.61719V22.3828C26.4844 24.6444 24.6444 26.4844 22.3828 26.4844H20.8594C20.5357 26.4844 20.2734 26.7467 20.2734 27.0703C20.2734 27.394 20.5357 27.6562 20.8594 27.6562Z" fill="#C02020"/>
<path d="M21.4453 15C21.4453 11.4462 18.5538 8.55469 15 8.55469C11.4462 8.55469 8.55469 11.4462 8.55469 15C8.55469 18.5538 11.4462 21.4453 15 21.4453C18.5538 21.4453 21.4453 18.5538 21.4453 15ZM15 20.2734C12.0923 20.2734 9.72656 17.9077 9.72656 15C9.72656 12.0923 12.0923 9.72656 15 9.72656C17.9077 9.72656 20.2734 12.0923 20.2734 15C20.2734 17.9077 17.9077 20.2734 15 20.2734Z" fill="#C02020"/>
<path d="M15 10.8984C12.7384 10.8984 10.8984 12.7384 10.8984 15C10.8984 17.2616 12.7384 19.1016 15 19.1016C17.2616 19.1016 19.1016 17.2616 19.1016 15C19.1016 12.7384 17.2616 10.8984 15 10.8984ZM15 17.9297C13.3846 17.9297 12.0703 16.6154 12.0703 15C12.0703 13.3846 13.3846 12.0703 15 12.0703C16.6154 12.0703 17.9297 13.3846 17.9297 15C17.9297 16.6154 16.6154 17.9297 15 17.9297Z" fill="#C02020"/>
<path d="M24.7266 7.61743C24.7266 6.32494 23.6751 5.27368 22.3828 5.27368C21.0903 5.27368 20.0391 6.32494 20.0391 7.61743C20.0391 8.9097 21.0903 9.96118 22.3828 9.96118C23.6751 9.96118 24.7266 8.9097 24.7266 7.61743ZM21.2109 7.61743C21.2109 6.97107 21.7367 6.44556 22.3828 6.44556C23.0289 6.44556 23.5547 6.97107 23.5547 7.61743C23.5547 8.26357 23.0289 8.78931 22.3828 8.78931C21.7367 8.78931 21.2109 8.26357 21.2109 7.61743Z" fill="#C02020"/>
<path d="M18.5154 26.4844C18.1918 26.4844 17.9297 26.7467 17.9297 27.0703C17.9297 27.394 18.1922 27.6562 18.5159 27.6562C18.8395 27.6562 19.1018 27.394 19.1018 27.0703C19.1018 26.7467 18.8395 26.4844 18.5159 26.4844H18.5154Z" fill="#C02020"/>
</svg>
