<svg width="30" height="30" viewBox="0 0 30 30" fill="none" xmlns="http://www.w3.org/2000/svg">
<path d="M22.3828 28.8281H1.75781C1.43463 28.8281 1.17188 28.5654 1.17188 28.2422V1.75781C1.17188 1.43463 1.43463 1.17188 1.75781 1.17188H2.92969C3.25333 1.17188 3.51562 0.909576 3.51562 0.585938C3.51562 0.262299 3.25333 0 2.92969 0H1.75781C0.788498 0 0 0.788498 0 1.75781V28.2422C0 29.2115 0.788498 30 1.75781 30H22.3828C22.7062 30 22.9688 29.7377 22.9688 29.4141C22.9688 29.0904 22.7065 28.8281 22.3828 28.8281Z" fill="#C02020"/>
<path d="M28.2422 0H7.61719C7.29355 0 7.03125 0.262299 7.03125 0.585938C7.03125 0.909576 7.29355 1.17188 7.61719 1.17188H28.2422C28.5654 1.17188 28.8281 1.43463 28.8281 1.75781V28.2422C28.8281 28.5654 28.5654 28.8281 28.2422 28.8281H27.0703C26.7467 28.8281 26.4844 29.0904 26.4844 29.4141C26.4844 29.7377 26.7467 30 27.0703 30H28.2422C29.2115 30 30 29.2113 30 28.2422V1.75781C30 0.788498 29.2115 0 28.2422 0Z" fill="#C02020"/>
<path d="M7.22168 10.3564C8.92593 10.3564 10.3125 8.96988 10.3125 7.26562C10.3125 5.56114 8.92593 4.1748 7.22168 4.1748C5.5172 4.1748 4.13086 5.56137 4.13086 7.26562C4.13086 8.96988 5.5172 10.3564 7.22168 10.3564ZM7.22168 5.34668C8.2798 5.34668 9.14062 6.2075 9.14062 7.26562C9.14062 8.32375 8.2798 9.18457 7.22168 9.18457C6.16356 9.18457 5.30273 8.32375 5.30273 7.26562C5.30273 6.2075 6.16356 5.34668 7.22168 5.34668Z" fill="#C02020"/>
<path d="M20.1709 10.6494C18.8759 10.6494 17.626 11.0999 16.626 11.8959V11.5283C16.626 11.2047 16.3634 10.9424 16.04 10.9424H11.9531C11.6295 10.9424 11.3672 11.2047 11.3672 11.5283V25.2393C11.3672 25.5629 11.6295 25.8252 11.9531 25.8252H16.2598C16.5832 25.8252 16.8457 25.5629 16.8457 25.2393V17.3254C16.8457 16.3481 17.6408 15.553 18.6182 15.553C19.5955 15.553 20.3906 16.3481 20.3906 17.3254V25.2393C20.3906 25.5629 20.6529 25.8252 20.9766 25.8252H25.2832C25.6066 25.8252 25.8691 25.5629 25.8691 25.2393V16.3477C25.8691 13.2056 23.3128 10.6494 20.1709 10.6494ZM24.6973 24.6533H21.5625V17.3254C21.5625 15.702 20.2416 14.3811 18.6182 14.3811C16.9945 14.3811 15.6738 15.702 15.6738 17.3254V24.6533H12.5391V12.1143H15.4541V13.3454C15.4541 13.599 15.6171 13.8238 15.8583 13.9025C16.0991 13.981 16.3637 13.8956 16.5131 13.6908C17.3678 12.5203 18.7351 11.8213 20.1709 11.8213C22.6666 11.8213 24.6973 13.8517 24.6973 16.3477V24.6533Z" fill="#C02020"/>
<path d="M5.06836 10.9424C4.74472 10.9424 4.48242 11.2047 4.48242 11.5283V25.2393C4.48242 25.5629 4.74472 25.8252 5.06836 25.8252H9.375C9.69841 25.8252 9.96094 25.5629 9.96094 25.2393V11.5283C9.96094 11.2047 9.69841 10.9424 9.375 10.9424H5.06836ZM8.78906 24.6533H5.6543V12.1143H8.78906V24.6533Z" fill="#C02020"/>
<path d="M5.27367 1.17188C5.59708 1.17188 5.8596 0.909576 5.8596 0.585938C5.8596 0.262299 5.59708 0 5.27367 0H5.27321C4.94957 0 4.6875 0.262299 4.6875 0.585938C4.6875 0.909576 4.95003 1.17188 5.27367 1.17188Z" fill="#C02020"/>
<path d="M24.7268 28.8281H24.7263C24.4027 28.8281 24.1406 29.0904 24.1406 29.4141C24.1406 29.7377 24.4032 30 24.7268 30C25.0504 30 25.3127 29.7377 25.3127 29.4141C25.3127 29.0904 25.0504 28.8281 24.7268 28.8281Z" fill="#C02020"/>
</svg>
