<svg width="146" height="56" viewBox="0 0 146 56" fill="none" xmlns="http://www.w3.org/2000/svg">
<path d="M15.874 35.248C13.7867 35.248 12.2987 34.9483 11.41 34.349C10.5213 33.729 9.96333 32.7267 9.736 31.342C9.50867 29.9367 9.395 27.6013 9.395 24.336C9.395 21.0707 9.50867 18.7457 9.736 17.361C9.96333 15.9557 10.5213 14.9533 11.41 14.354C12.2987 13.734 13.7867 13.424 15.874 13.424C17.9613 13.424 19.4493 13.734 20.338 14.354C21.2267 14.9533 21.7847 15.9557 22.012 17.361C22.26 18.7663 22.384 21.0913 22.384 24.336C22.384 27.5807 22.26 29.9057 22.012 31.311C21.7847 32.7163 21.2267 33.729 20.338 34.349C19.4493 34.9483 17.9613 35.248 15.874 35.248ZM15.874 32.055C16.8867 32.055 17.579 31.931 17.951 31.683C18.323 31.4143 18.5607 30.7943 18.664 29.823C18.788 28.831 18.85 27.002 18.85 24.336C18.85 21.67 18.788 19.8513 18.664 18.88C18.5607 17.888 18.323 17.268 17.951 17.02C17.579 16.7513 16.8867 16.617 15.874 16.617C14.8613 16.617 14.169 16.7513 13.797 17.02C13.4457 17.268 13.208 17.8777 13.084 18.849C12.9807 19.8203 12.929 21.6493 12.929 24.336C12.929 27.0227 12.9807 28.8517 13.084 29.823C13.208 30.7943 13.4457 31.4143 13.797 31.683C14.169 31.931 14.8613 32.055 15.874 32.055ZM29.1045 35.248C28.0298 35.248 27.1928 35.0207 26.5935 34.566C26.0148 34.0907 25.6015 33.2743 25.3535 32.117C25.1055 30.9597 24.9815 29.3063 24.9815 27.157C24.9815 25.0283 25.0951 23.3853 25.3225 22.228C25.5705 21.05 25.9838 20.213 26.5625 19.717C27.1411 19.2003 27.9678 18.942 29.0425 18.942C30.7578 18.942 31.8738 19.593 32.3905 20.895H32.5765V11.967H35.9245V35H32.8245L32.7005 33.047H32.4835C32.0495 34.5143 30.9231 35.248 29.1045 35.248ZM30.4995 32.148C31.0161 32.148 31.4088 32.0653 31.6775 31.9C31.9461 31.714 32.1528 31.404 32.2975 30.97C32.4835 30.3087 32.5765 29.017 32.5765 27.095C32.5765 25.5037 32.5248 24.398 32.4215 23.778C32.3181 23.1167 32.1218 22.662 31.8325 22.414C31.5431 22.166 31.0988 22.042 30.4995 22.042C29.7968 22.042 29.3008 22.1453 29.0115 22.352C28.7428 22.538 28.5568 22.9617 28.4535 23.623C28.3708 24.2843 28.3295 25.4417 28.3295 27.095C28.3295 28.7483 28.3708 29.9057 28.4535 30.567C28.5568 31.2283 28.7428 31.6623 29.0115 31.869C29.3008 32.055 29.7968 32.148 30.4995 32.148ZM39.1891 15.377V11.967H42.5991V15.377H39.1891ZM39.2201 35V19.19H42.5681V35H39.2201ZM50.004 35.248C49.322 35.248 48.5574 35.2067 47.71 35.124C46.8834 35.0413 46.16 34.938 45.54 34.814V32.117C47.028 32.2823 48.2784 32.365 49.291 32.365C49.9317 32.365 50.407 32.3133 50.717 32.21C51.027 32.086 51.2337 31.9 51.337 31.652C51.4404 31.404 51.492 31.032 51.492 30.536C51.492 29.9573 51.461 29.5543 51.399 29.327C51.337 29.079 51.2234 28.9137 51.058 28.831C50.8927 28.7277 50.6034 28.645 50.19 28.583L47.431 28.18C46.5837 28.056 45.9947 27.6633 45.664 27.002C45.3334 26.3407 45.168 25.235 45.168 23.685C45.168 21.9077 45.5917 20.678 46.439 19.996C47.2864 19.2933 48.5367 18.942 50.19 18.942C50.872 18.942 51.5747 18.9937 52.298 19.097C53.042 19.1797 53.6414 19.2933 54.096 19.438V22.104C52.9387 21.918 51.7814 21.825 50.624 21.825C49.818 21.825 49.26 21.949 48.95 22.197C48.6607 22.4243 48.516 22.8997 48.516 23.623C48.516 24.1397 48.5367 24.5117 48.578 24.739C48.64 24.9663 48.7434 25.1317 48.888 25.235C49.0534 25.3177 49.322 25.3797 49.694 25.421L52.05 25.731C52.6494 25.8137 53.1454 25.979 53.538 26.227C53.9307 26.475 54.2407 26.9193 54.468 27.56C54.6954 28.2007 54.809 29.11 54.809 30.288C54.809 32.1687 54.4164 33.4707 53.631 34.194C52.8664 34.8967 51.6574 35.248 50.004 35.248ZM61.5685 35.248C60.8865 35.248 60.1218 35.2067 59.2745 35.124C58.4478 35.0413 57.7245 34.938 57.1045 34.814V32.117C58.5925 32.2823 59.8428 32.365 60.8555 32.365C61.4962 32.365 61.9715 32.3133 62.2815 32.21C62.5915 32.086 62.7982 31.9 62.9015 31.652C63.0048 31.404 63.0565 31.032 63.0565 30.536C63.0565 29.9573 63.0255 29.5543 62.9635 29.327C62.9015 29.079 62.7878 28.9137 62.6225 28.831C62.4572 28.7277 62.1678 28.645 61.7545 28.583L58.9955 28.18C58.1482 28.056 57.5592 27.6633 57.2285 27.002C56.8978 26.3407 56.7325 25.235 56.7325 23.685C56.7325 21.9077 57.1562 20.678 58.0035 19.996C58.8508 19.2933 60.1012 18.942 61.7545 18.942C62.4365 18.942 63.1392 18.9937 63.8625 19.097C64.6065 19.1797 65.2058 19.2933 65.6605 19.438V22.104C64.5032 21.918 63.3458 21.825 62.1885 21.825C61.3825 21.825 60.8245 21.949 60.5145 22.197C60.2252 22.4243 60.0805 22.8997 60.0805 23.623C60.0805 24.1397 60.1012 24.5117 60.1425 24.739C60.2045 24.9663 60.3078 25.1317 60.4525 25.235C60.6178 25.3177 60.8865 25.3797 61.2585 25.421L63.6145 25.731C64.2138 25.8137 64.7098 25.979 65.1025 26.227C65.4952 26.475 65.8052 26.9193 66.0325 27.56C66.2598 28.2007 66.3735 29.11 66.3735 30.288C66.3735 32.1687 65.9808 33.4707 65.1955 34.194C64.4308 34.8967 63.2218 35.248 61.5685 35.248ZM79.2399 28.242H71.8929C71.8929 29.5853 71.9549 30.5257 72.0789 31.063C72.2029 31.5797 72.4716 31.931 72.8849 32.117C73.2983 32.2823 74.0216 32.365 75.0549 32.365C76.0469 32.365 77.3179 32.2823 78.8679 32.117V34.752C78.3513 34.8967 77.6589 35.0103 76.7909 35.093C75.9436 35.1963 75.1169 35.248 74.3109 35.248C72.5749 35.248 71.2936 34.9897 70.4669 34.473C69.6609 33.9357 69.1339 33.1297 68.8859 32.055C68.6586 30.9597 68.5449 29.3167 68.5449 27.126C68.5449 24.956 68.6586 23.3233 68.8859 22.228C69.1133 21.1327 69.6196 20.3163 70.4049 19.779C71.1903 19.221 72.4199 18.942 74.0939 18.942C75.7473 18.942 76.9253 19.2107 77.6279 19.748C78.3513 20.2647 78.7956 21.05 78.9609 22.104C79.1469 23.1373 79.2399 24.801 79.2399 27.095V28.242ZM74.0319 21.825C73.3913 21.825 72.9263 21.918 72.6369 22.104C72.3476 22.29 72.1513 22.6413 72.0479 23.158C71.9653 23.6747 71.9136 24.5427 71.8929 25.762H76.0469V25.731C76.0469 24.5323 75.9953 23.6643 75.8919 23.127C75.7886 22.5897 75.6026 22.2383 75.3339 22.073C75.0653 21.9077 74.6313 21.825 74.0319 21.825ZM87.0459 41.2C86.3019 41.2 85.5372 41.169 84.7519 41.107C83.9872 41.045 83.3569 40.9727 82.8609 40.89V38.193C84.1009 38.2343 85.2479 38.255 86.3019 38.255C87.3145 38.255 88.0275 38.1517 88.4409 37.945C88.8749 37.7383 89.1435 37.356 89.2469 36.798C89.3709 36.2607 89.4329 35.3307 89.4329 34.008V32.985H89.2159C88.7819 34.3697 87.6452 35.062 85.8059 35.062C84.6899 35.062 83.8632 34.8347 83.3259 34.38C82.8092 33.9253 82.4682 33.2433 82.3029 32.334C82.1582 31.4247 82.0859 30.102 82.0859 28.366V19.19H85.4339V27.777C85.4339 29.203 85.4649 30.195 85.5269 30.753C85.6095 31.2903 85.7749 31.6417 86.0229 31.807C86.2709 31.9517 86.7049 32.024 87.3249 32.024C87.9862 32.024 88.4615 31.8897 88.7509 31.621C89.0609 31.3523 89.2469 30.9183 89.3089 30.319C89.3915 29.7197 89.4329 28.7277 89.4329 27.343V19.19H92.7809V33.016C92.7809 35.1653 92.6569 36.7877 92.4089 37.883C92.1816 38.9783 91.6649 39.805 90.8589 40.363C90.0529 40.921 88.7819 41.2 87.0459 41.2Z" fill="white"/>
<path d="M15.874 35.248C13.7867 35.248 12.2987 34.9483 11.41 34.349C10.5213 33.729 9.96333 32.7267 9.736 31.342C9.50867 29.9367 9.395 27.6013 9.395 24.336C9.395 21.0707 9.50867 18.7457 9.736 17.361C9.96333 15.9557 10.5213 14.9533 11.41 14.354C12.2987 13.734 13.7867 13.424 15.874 13.424C17.9613 13.424 19.4493 13.734 20.338 14.354C21.2267 14.9533 21.7847 15.9557 22.012 17.361C22.26 18.7663 22.384 21.0913 22.384 24.336C22.384 27.5807 22.26 29.9057 22.012 31.311C21.7847 32.7163 21.2267 33.729 20.338 34.349C19.4493 34.9483 17.9613 35.248 15.874 35.248ZM15.874 32.055C16.8867 32.055 17.579 31.931 17.951 31.683C18.323 31.4143 18.5607 30.7943 18.664 29.823C18.788 28.831 18.85 27.002 18.85 24.336C18.85 21.67 18.788 19.8513 18.664 18.88C18.5607 17.888 18.323 17.268 17.951 17.02C17.579 16.7513 16.8867 16.617 15.874 16.617C14.8613 16.617 14.169 16.7513 13.797 17.02C13.4457 17.268 13.208 17.8777 13.084 18.849C12.9807 19.8203 12.929 21.6493 12.929 24.336C12.929 27.0227 12.9807 28.8517 13.084 29.823C13.208 30.7943 13.4457 31.4143 13.797 31.683C14.169 31.931 14.8613 32.055 15.874 32.055ZM29.1045 35.248C28.0298 35.248 27.1928 35.0207 26.5935 34.566C26.0148 34.0907 25.6015 33.2743 25.3535 32.117C25.1055 30.9597 24.9815 29.3063 24.9815 27.157C24.9815 25.0283 25.0951 23.3853 25.3225 22.228C25.5705 21.05 25.9838 20.213 26.5625 19.717C27.1411 19.2003 27.9678 18.942 29.0425 18.942C30.7578 18.942 31.8738 19.593 32.3905 20.895H32.5765V11.967H35.9245V35H32.8245L32.7005 33.047H32.4835C32.0495 34.5143 30.9231 35.248 29.1045 35.248ZM30.4995 32.148C31.0161 32.148 31.4088 32.0653 31.6775 31.9C31.9461 31.714 32.1528 31.404 32.2975 30.97C32.4835 30.3087 32.5765 29.017 32.5765 27.095C32.5765 25.5037 32.5248 24.398 32.4215 23.778C32.3181 23.1167 32.1218 22.662 31.8325 22.414C31.5431 22.166 31.0988 22.042 30.4995 22.042C29.7968 22.042 29.3008 22.1453 29.0115 22.352C28.7428 22.538 28.5568 22.9617 28.4535 23.623C28.3708 24.2843 28.3295 25.4417 28.3295 27.095C28.3295 28.7483 28.3708 29.9057 28.4535 30.567C28.5568 31.2283 28.7428 31.6623 29.0115 31.869C29.3008 32.055 29.7968 32.148 30.4995 32.148ZM39.1891 15.377V11.967H42.5991V15.377H39.1891ZM39.2201 35V19.19H42.5681V35H39.2201ZM50.004 35.248C49.322 35.248 48.5574 35.2067 47.71 35.124C46.8834 35.0413 46.16 34.938 45.54 34.814V32.117C47.028 32.2823 48.2784 32.365 49.291 32.365C49.9317 32.365 50.407 32.3133 50.717 32.21C51.027 32.086 51.2337 31.9 51.337 31.652C51.4404 31.404 51.492 31.032 51.492 30.536C51.492 29.9573 51.461 29.5543 51.399 29.327C51.337 29.079 51.2234 28.9137 51.058 28.831C50.8927 28.7277 50.6034 28.645 50.19 28.583L47.431 28.18C46.5837 28.056 45.9947 27.6633 45.664 27.002C45.3334 26.3407 45.168 25.235 45.168 23.685C45.168 21.9077 45.5917 20.678 46.439 19.996C47.2864 19.2933 48.5367 18.942 50.19 18.942C50.872 18.942 51.5747 18.9937 52.298 19.097C53.042 19.1797 53.6414 19.2933 54.096 19.438V22.104C52.9387 21.918 51.7814 21.825 50.624 21.825C49.818 21.825 49.26 21.949 48.95 22.197C48.6607 22.4243 48.516 22.8997 48.516 23.623C48.516 24.1397 48.5367 24.5117 48.578 24.739C48.64 24.9663 48.7434 25.1317 48.888 25.235C49.0534 25.3177 49.322 25.3797 49.694 25.421L52.05 25.731C52.6494 25.8137 53.1454 25.979 53.538 26.227C53.9307 26.475 54.2407 26.9193 54.468 27.56C54.6954 28.2007 54.809 29.11 54.809 30.288C54.809 32.1687 54.4164 33.4707 53.631 34.194C52.8664 34.8967 51.6574 35.248 50.004 35.248ZM61.5685 35.248C60.8865 35.248 60.1218 35.2067 59.2745 35.124C58.4478 35.0413 57.7245 34.938 57.1045 34.814V32.117C58.5925 32.2823 59.8428 32.365 60.8555 32.365C61.4962 32.365 61.9715 32.3133 62.2815 32.21C62.5915 32.086 62.7982 31.9 62.9015 31.652C63.0048 31.404 63.0565 31.032 63.0565 30.536C63.0565 29.9573 63.0255 29.5543 62.9635 29.327C62.9015 29.079 62.7878 28.9137 62.6225 28.831C62.4572 28.7277 62.1678 28.645 61.7545 28.583L58.9955 28.18C58.1482 28.056 57.5592 27.6633 57.2285 27.002C56.8978 26.3407 56.7325 25.235 56.7325 23.685C56.7325 21.9077 57.1562 20.678 58.0035 19.996C58.8508 19.2933 60.1012 18.942 61.7545 18.942C62.4365 18.942 63.1392 18.9937 63.8625 19.097C64.6065 19.1797 65.2058 19.2933 65.6605 19.438V22.104C64.5032 21.918 63.3458 21.825 62.1885 21.825C61.3825 21.825 60.8245 21.949 60.5145 22.197C60.2252 22.4243 60.0805 22.8997 60.0805 23.623C60.0805 24.1397 60.1012 24.5117 60.1425 24.739C60.2045 24.9663 60.3078 25.1317 60.4525 25.235C60.6178 25.3177 60.8865 25.3797 61.2585 25.421L63.6145 25.731C64.2138 25.8137 64.7098 25.979 65.1025 26.227C65.4952 26.475 65.8052 26.9193 66.0325 27.56C66.2598 28.2007 66.3735 29.11 66.3735 30.288C66.3735 32.1687 65.9808 33.4707 65.1955 34.194C64.4308 34.8967 63.2218 35.248 61.5685 35.248ZM79.2399 28.242H71.8929C71.8929 29.5853 71.9549 30.5257 72.0789 31.063C72.2029 31.5797 72.4716 31.931 72.8849 32.117C73.2983 32.2823 74.0216 32.365 75.0549 32.365C76.0469 32.365 77.3179 32.2823 78.8679 32.117V34.752C78.3513 34.8967 77.6589 35.0103 76.7909 35.093C75.9436 35.1963 75.1169 35.248 74.3109 35.248C72.5749 35.248 71.2936 34.9897 70.4669 34.473C69.6609 33.9357 69.1339 33.1297 68.8859 32.055C68.6586 30.9597 68.5449 29.3167 68.5449 27.126C68.5449 24.956 68.6586 23.3233 68.8859 22.228C69.1133 21.1327 69.6196 20.3163 70.4049 19.779C71.1903 19.221 72.4199 18.942 74.0939 18.942C75.7473 18.942 76.9253 19.2107 77.6279 19.748C78.3513 20.2647 78.7956 21.05 78.9609 22.104C79.1469 23.1373 79.2399 24.801 79.2399 27.095V28.242ZM74.0319 21.825C73.3913 21.825 72.9263 21.918 72.6369 22.104C72.3476 22.29 72.1513 22.6413 72.0479 23.158C71.9653 23.6747 71.9136 24.5427 71.8929 25.762H76.0469V25.731C76.0469 24.5323 75.9953 23.6643 75.8919 23.127C75.7886 22.5897 75.6026 22.2383 75.3339 22.073C75.0653 21.9077 74.6313 21.825 74.0319 21.825ZM87.0459 41.2C86.3019 41.2 85.5372 41.169 84.7519 41.107C83.9872 41.045 83.3569 40.9727 82.8609 40.89V38.193C84.1009 38.2343 85.2479 38.255 86.3019 38.255C87.3145 38.255 88.0275 38.1517 88.4409 37.945C88.8749 37.7383 89.1435 37.356 89.2469 36.798C89.3709 36.2607 89.4329 35.3307 89.4329 34.008V32.985H89.2159C88.7819 34.3697 87.6452 35.062 85.8059 35.062C84.6899 35.062 83.8632 34.8347 83.3259 34.38C82.8092 33.9253 82.4682 33.2433 82.3029 32.334C82.1582 31.4247 82.0859 30.102 82.0859 28.366V19.19H85.4339V27.777C85.4339 29.203 85.4649 30.195 85.5269 30.753C85.6095 31.2903 85.7749 31.6417 86.0229 31.807C86.2709 31.9517 86.7049 32.024 87.3249 32.024C87.9862 32.024 88.4615 31.8897 88.7509 31.621C89.0609 31.3523 89.2469 30.9183 89.3089 30.319C89.3915 29.7197 89.4329 28.7277 89.4329 27.343V19.19H92.7809V33.016C92.7809 35.1653 92.6569 36.7877 92.4089 37.883C92.1816 38.9783 91.6649 39.805 90.8589 40.363C90.0529 40.921 88.7819 41.2 87.0459 41.2Z" fill="white"/>
<path d="M10.2658 24C7.27421 24.9128 -1.14613 27.5602 3.24154 28.6556C8.72613 30.0248 26.145 26.9983 27.5364 25.0703C29.0991 22.905 22.1929 22.8882 21.445 23.0708" stroke="#C02020" stroke-width="3"/>
<path d="M9.6 22H12V27L9 26.1667V24.5V22H9.6Z" fill="white"/>
<path d="M20.2657 20L22.2657 21.2397V23V24.5L20.2657 26V20Z" fill="white"/>
<g clip-path="url(#clip0)">
<rect width="7" height="7" transform="translate(36.7657 10)" fill="#140046"/>
<path d="M40.7657 12L41.4393 14.0729H43.6189L41.8556 15.3541L42.5291 17.4271L40.7657 16.1459L39.0024 17.4271L39.6759 15.3541L37.9126 14.0729H40.0922L40.7657 12Z" fill="white"/>
</g>
<defs>
<clipPath id="clip0">
<rect width="7" height="7" fill="white" transform="translate(36.7657 10)"/>
</clipPath>
</defs>
</svg>
