<svg xmlns="http://www.w3.org/2000/svg" width="347" height="299" viewBox="0 0 347 299">
  <g id="Polygon_6" data-name="Polygon 6" fill="none">
    <path d="M147.552,44.717a30,30,0,0,1,51.9,0L320.855,253.943A30,30,0,0,1,294.907,299H52.093a30,30,0,0,1-25.948-45.057Z" stroke="none"/>
    <path d="M 173.4999847412109 30.77389526367188 C 168.5453186035156 30.77389526367188 163.6683654785156 32.02252197265625 159.3963623046875 34.38482666015625 C 157.1815338134766 35.60958862304688 155.1389007568359 37.12716674804688 153.3252410888672 38.89547729492188 C 151.4321136474609 40.74127197265625 149.7807006835938 42.86886596679688 148.4169464111328 45.21902465820313 L 27.00985717773438 254.4451599121094 C 25.64108276367188 256.8040771484375 24.61080932617188 259.3026123046875 23.94778442382813 261.8713989257813 C 23.31265258789063 264.331787109375 23.0111083984375 266.866455078125 23.051513671875 269.4049072265625 C 23.12939453125 274.3006896972656 24.48171997070313 279.1651916503906 26.96231079101563 283.4725341796875 C 29.44290161132813 287.7798767089844 32.97161865234375 291.3909912109375 37.16702270507813 293.91552734375 C 39.34234619140625 295.2244873046875 41.68603515625 296.23583984375 44.1328125 296.9213562011719 C 46.68743896484375 297.6370849609375 49.36557006835938 298 52.09286499023438 298 L 294.9071044921875 298 C 297.6343994140625 298 300.3125305175781 297.6370849609375 302.8671569824219 296.9213562011719 C 305.3139953613281 296.23583984375 307.6575927734375 295.2245483398438 309.8329467773438 293.91552734375 C 314.0283508300781 291.3910217285156 317.5570678710938 287.7799072265625 320.0376586914063 283.4725646972656 C 322.5182495117188 279.1651916503906 323.8705749511719 274.3006896972656 323.948486328125 269.4049072265625 C 323.9888610839844 266.866455078125 323.6873168945313 264.331787109375 323.05224609375 261.8713684082031 C 322.38916015625 259.3025817871094 321.35888671875 256.8040161132813 319.9901123046875 254.4451141357422 L 198.5829772949219 45.21902465820313 C 197.21923828125 42.86886596679688 195.5678253173828 40.74127197265625 193.6746978759766 38.89547729492188 C 191.8610229492188 37.12716674804688 189.8184051513672 35.60958862304688 187.6036071777344 34.38482666015625 C 183.3315734863281 32.02252197265625 178.4546508789063 30.77389526367188 173.4999847412109 30.77389526367188 M 173.4999847412109 29.77389526367188 C 183.5835723876953 29.77389526367188 193.6671752929688 34.7550048828125 199.4479064941406 44.7171630859375 L 320.8550415039063 253.9432373046875 C 332.4603271484375 273.9431457519531 318.0302734375 299 294.9071044921875 299 L 52.09286499023438 299 C 28.9697265625 299 14.53964233398438 273.9431457519531 26.14492797851563 253.9432830810547 L 147.5520324707031 44.7171630859375 C 153.3327789306641 34.7550048828125 163.4163818359375 29.77389526367188 173.4999847412109 29.77389526367188 Z" stroke="none" fill="#c02020"/>
  </g>
</svg>
